<?xml version="1.0" encoding="UTF-8" standalone="no"?><!-- Generator: Gravit.io --><svg xmlns="http://www.w3.org/2000/svg" xmlns:xlink="http://www.w3.org/1999/xlink" style="isolation:isolate" viewBox="0 0 1360.63 1360.63" width="1360.63pt" height="1360.63pt"><defs><clipPath id="_clipPath_hP43AXm8PW3TX1P1saXr7bKXsgYpb0f9"><rect width="1360.63" height="1360.63"/></clipPath></defs><g clip-path="url(#_clipPath_hP43AXm8PW3TX1P1saXr7bKXsgYpb0f9)"><rect x="0" y="0" width="1360.63" height="1360.63" transform="matrix(1,0,0,1,0,0)" fill="rgb(229,215,186)"/><rect x="39.685" y="39.685" width="1281.26" height="1281.26" transform="matrix(1,0,0,1,0,0)" fill="rgb(73,57,57)"/><rect x="42.52" y="42.52" width="1275.591" height="1275.591" transform="matrix(1,0,0,1,0,0)" fill="rgb(229,215,186)"/><rect x="362.835" y="204.094" width="158.74" height="158.74" transform="matrix(1,0,0,1,0,0)" fill="rgb(73,57,57)"/><rect x="839.055" y="45.354" width="158.74" height="158.74" transform="matrix(1,0,0,1,0,0)" fill="rgb(73,57,57)"/><rect x="680.315" y="204.094" width="158.74" height="158.74" transform="matrix(1,0,0,1,0,0)" fill="rgb(73,57,57)"/><rect x="997.795" y="204.094" width="158.74" height="158.74" transform="matrix(1,0,0,1,0,0)" fill="rgb(73,57,57)"/><rect x="1156.535" y="45.354" width="158.74" height="158.74" transform="matrix(1,0,0,1,0,0)" fill="rgb(73,57,57)"/><rect x="204.094" y="45.354" width="158.74" height="158.74" transform="matrix(1,0,0,1,0,0)" fill="rgb(73,57,57)"/><rect x="521.575" y="45.354" width="158.74" height="158.74" transform="matrix(1,0,0,1,0,0)" fill="rgb(73,57,57)"/><rect x="45.354" y="204.094" width="158.74" height="158.74" transform="matrix(1,0,0,1,0,0)" fill="rgb(73,57,57)"/><rect x="362.835" y="521.575" width="158.74" height="158.74" transform="matrix(1,0,0,1,0,0)" fill="rgb(73,57,57)"/><rect x="839.055" y="362.835" width="158.74" height="158.74" transform="matrix(1,0,0,1,0,0)" fill="rgb(73,57,57)"/><rect x="680.315" y="521.575" width="158.74" height="158.74" transform="matrix(1,0,0,1,0,0)" fill="rgb(73,57,57)"/><rect x="997.795" y="521.575" width="158.74" height="158.74" transform="matrix(1,0,0,1,0,0)" fill="rgb(73,57,57)"/><rect x="1156.535" y="362.835" width="158.74" height="158.74" transform="matrix(1,0,0,1,0,0)" fill="rgb(73,57,57)"/><rect x="204.094" y="362.835" width="158.74" height="158.74" transform="matrix(1,0,0,1,0,0)" fill="rgb(73,57,57)"/><rect x="521.575" y="362.835" width="158.74" height="158.74" transform="matrix(1,0,0,1,0,0)" fill="rgb(73,57,57)"/><rect x="45.354" y="521.575" width="158.74" height="158.74" transform="matrix(1,0,0,1,0,0)" fill="rgb(73,57,57)"/><text transform="matrix(-1,0,0,-1,1352.062,110.759)" style="font-family:'Open Sans';font-weight:700;font-size:36px;font-style:normal;fill:#493939;stroke:none;">1</text><text transform="matrix(-1,0,0,-1,1352.062,269.499)" style="font-family:'Open Sans';font-weight:700;font-size:36px;font-style:normal;fill:#493939;stroke:none;">2</text><text transform="matrix(-1,0,0,-1,1352.062,428.239)" style="font-family:'Open Sans';font-weight:700;font-size:36px;font-style:normal;fill:#493939;stroke:none;">8</text><text transform="matrix(-1,0,0,-1,1352.062,586.979)" style="font-family:'Open Sans';font-weight:700;font-size:36px;font-style:normal;fill:#493939;stroke:none;">7</text><text transform="matrix(1,0,0,1,1222.487,1354.753)" style="font-family:'Open Sans';font-weight:700;font-size:36px;font-style:normal;fill:#493939;stroke:none;">A</text><text transform="matrix(1,0,0,1,1064.072,1354.753)" style="font-family:'Open Sans';font-weight:700;font-size:36px;font-style:normal;fill:#493939;stroke:none;">B</text><text transform="matrix(1,0,0,1,905.955,1354.753)" style="font-family:'Open Sans';font-weight:700;font-size:36px;font-style:normal;fill:#493939;stroke:none;">C</text><text transform="matrix(1,0,0,1,745.361,1354.753)" style="font-family:'Open Sans';font-weight:700;font-size:36px;font-style:normal;fill:#493939;stroke:none;">D</text><text transform="matrix(1,0,0,1,589.864,1354.753)" style="font-family:'Open Sans';font-weight:700;font-size:36px;font-style:normal;fill:#493939;stroke:none;">E</text><text transform="matrix(1,0,0,1,431.326,1354.753)" style="font-family:'Open Sans';font-weight:700;font-size:36px;font-style:normal;fill:#493939;stroke:none;">F</text><text transform="matrix(1,0,0,1,269.43,1354.753)" style="font-family:'Open Sans';font-weight:700;font-size:36px;font-style:normal;fill:#493939;stroke:none;">G</text><rect x="362.835" y="839.055" width="158.74" height="158.74" transform="matrix(1,0,0,1,0,0)" fill="rgb(73,57,57)"/><rect x="839.055" y="680.315" width="158.74" height="158.74" transform="matrix(1,0,0,1,0,0)" fill="rgb(73,57,57)"/><rect x="680.315" y="839.055" width="158.74" height="158.74" transform="matrix(1,0,0,1,0,0)" fill="rgb(73,57,57)"/><rect x="997.795" y="839.055" width="158.74" height="158.74" transform="matrix(1,0,0,1,0,0)" fill="rgb(73,57,57)"/><rect x="1156.535" y="680.315" width="158.74" height="158.74" transform="matrix(1,0,0,1,0,0)" fill="rgb(73,57,57)"/><rect x="204.094" y="680.315" width="158.74" height="158.74" transform="matrix(1,0,0,1,0,0)" fill="rgb(73,57,57)"/><rect x="521.575" y="680.315" width="158.74" height="158.74" transform="matrix(1,0,0,1,0,0)" fill="rgb(73,57,57)"/><rect x="45.354" y="839.055" width="158.74" height="158.74" transform="matrix(1,0,0,1,0,0)" fill="rgb(73,57,57)"/><rect x="362.835" y="1156.535" width="158.74" height="158.74" transform="matrix(1,0,0,1,0,0)" fill="rgb(73,57,57)"/><rect x="839.055" y="997.795" width="158.74" height="158.74" transform="matrix(1,0,0,1,0,0)" fill="rgb(73,57,57)"/><rect x="680.315" y="1156.535" width="158.74" height="158.74" transform="matrix(1,0,0,1,0,0)" fill="rgb(73,57,57)"/><rect x="997.795" y="1156.535" width="158.74" height="158.74" transform="matrix(1,0,0,1,0,0)" fill="rgb(73,57,57)"/><rect x="1156.535" y="997.795" width="158.74" height="158.74" transform="matrix(1,0,0,1,0,0)" fill="rgb(73,57,57)"/><rect x="204.094" y="997.795" width="158.74" height="158.74" transform="matrix(1,0,0,1,0,0)" fill="rgb(73,57,57)"/><rect x="521.575" y="997.795" width="158.74" height="158.74" transform="matrix(1,0,0,1,0,0)" fill="rgb(73,57,57)"/><rect x="45.354" y="1156.535" width="158.74" height="158.74" transform="matrix(1,0,0,1,0,0)" fill="rgb(73,57,57)"/><text transform="matrix(1,0,0,1,8.568,138.69)" style="font-family:'Open Sans';font-weight:700;font-size:36px;font-style:normal;fill:#493939;stroke:none;">8</text><text transform="matrix(1,0,0,1,8.568,297.43)" style="font-family:'Open Sans';font-weight:700;font-size:36px;font-style:normal;fill:#493939;stroke:none;">7</text><text transform="matrix(1,0,0,1,109.952,1354.753)" style="font-family:'Open Sans';font-weight:700;font-size:36px;font-style:normal;fill:#493939;stroke:none;">H</text><text transform="matrix(1,0,0,1,1222.487,33.808)" style="font-family:'Open Sans';font-weight:700;font-size:36px;font-style:normal;fill:#493939;stroke:none;">A</text><text transform="matrix(1,0,0,1,1063.746,33.808)" style="font-family:'Open Sans';font-weight:700;font-size:36px;font-style:normal;fill:#493939;stroke:none;">A</text><text transform="matrix(1,0,0,1,905.006,33.808)" style="font-family:'Open Sans';font-weight:700;font-size:36px;font-style:normal;fill:#493939;stroke:none;">A</text><text transform="matrix(1,0,0,1,746.266,33.808)" style="font-family:'Open Sans';font-weight:700;font-size:36px;font-style:normal;fill:#493939;stroke:none;">A</text><text transform="matrix(1,0,0,1,587.526,33.808)" style="font-family:'Open Sans';font-weight:700;font-size:36px;font-style:normal;fill:#493939;stroke:none;">A</text><text transform="matrix(1,0,0,1,428.786,33.808)" style="font-family:'Open Sans';font-weight:700;font-size:36px;font-style:normal;fill:#493939;stroke:none;">A</text><text transform="matrix(1,0,0,1,270.046,33.808)" style="font-family:'Open Sans';font-weight:700;font-size:36px;font-style:normal;fill:#493939;stroke:none;">A</text><text transform="matrix(1,0,0,1,111.305,33.808)" style="font-family:'Open Sans';font-weight:700;font-size:36px;font-style:normal;fill:#493939;stroke:none;">A</text></g></svg>