<?xml version="1.0" encoding="UTF-8" standalone="no"?><!-- Generator: Gravit.io --><svg xmlns="http://www.w3.org/2000/svg" xmlns:xlink="http://www.w3.org/1999/xlink" style="isolation:isolate" viewBox="0 0 1360.63 1360.63" width="1360.63pt" height="1360.63pt"><defs><clipPath id="_clipPath_g8AkMofjkdNsHcQTR2bRIaqwNCwhf5BR"><rect width="1360.63" height="1360.63"/></clipPath></defs><g clip-path="url(#_clipPath_g8AkMofjkdNsHcQTR2bRIaqwNCwhf5BR)"><rect x="0" y="0" width="1360.63" height="1360.63" transform="matrix(1,0,0,1,0,0)" fill="rgb(229,215,186)"/><rect x="39.685" y="39.685" width="1281.26" height="1281.26" transform="matrix(1,0,0,1,0,0)" fill="rgb(73,57,57)"/><rect x="42.52" y="42.52" width="1275.591" height="1275.591" transform="matrix(1,0,0,1,0,0)" fill="rgb(229,215,186)"/><rect x="362.835" y="204.094" width="158.74" height="158.74" transform="matrix(1,0,0,1,0,0)" fill="rgb(73,57,57)"/><rect x="839.055" y="45.354" width="158.74" height="158.74" transform="matrix(1,0,0,1,0,0)" fill="rgb(73,57,57)"/><rect x="680.315" y="204.094" width="158.74" height="158.74" transform="matrix(1,0,0,1,0,0)" fill="rgb(73,57,57)"/><rect x="997.795" y="204.094" width="158.74" height="158.74" transform="matrix(1,0,0,1,0,0)" fill="rgb(73,57,57)"/><rect x="1156.535" y="45.354" width="158.74" height="158.74" transform="matrix(1,0,0,1,0,0)" fill="rgb(73,57,57)"/><rect x="204.094" y="45.354" width="158.74" height="158.74" transform="matrix(1,0,0,1,0,0)" fill="rgb(73,57,57)"/><rect x="521.575" y="45.354" width="158.74" height="158.74" transform="matrix(1,0,0,1,0,0)" fill="rgb(73,57,57)"/><rect x="45.354" y="204.094" width="158.74" height="158.74" transform="matrix(1,0,0,1,0,0)" fill="rgb(73,57,57)"/><rect x="362.835" y="521.575" width="158.74" height="158.74" transform="matrix(1,0,0,1,0,0)" fill="rgb(73,57,57)"/><rect x="839.055" y="362.835" width="158.74" height="158.74" transform="matrix(1,0,0,1,0,0)" fill="rgb(73,57,57)"/><rect x="680.315" y="521.575" width="158.74" height="158.74" transform="matrix(1,0,0,1,0,0)" fill="rgb(73,57,57)"/><rect x="997.795" y="521.575" width="158.74" height="158.74" transform="matrix(1,0,0,1,0,0)" fill="rgb(73,57,57)"/><rect x="1156.535" y="362.835" width="158.74" height="158.74" transform="matrix(1,0,0,1,0,0)" fill="rgb(73,57,57)"/><rect x="204.094" y="362.835" width="158.74" height="158.74" transform="matrix(1,0,0,1,0,0)" fill="rgb(73,57,57)"/><rect x="521.575" y="362.835" width="158.74" height="158.74" transform="matrix(1,0,0,1,0,0)" fill="rgb(73,57,57)"/><rect x="45.354" y="521.575" width="158.74" height="158.74" transform="matrix(1,0,0,1,0,0)" fill="rgb(73,57,57)"/><g clip-path="url(#_clipPath_idBN7jBYwLJ0pYoW7UHfKfRVVWU3ibYl)"><text transform="matrix(-1,0,0,-1,1352.062,110.759)" style="font-family:'Open Sans';font-weight:700;font-size:36px;font-style:normal;fill:#493939;stroke:none;">1</text></g><defs><clipPath id="_clipPath_idBN7jBYwLJ0pYoW7UHfKfRVVWU3ibYl"><rect x="0" y="0" width="39.685" height="39.685" transform="matrix(-1,0,0,-1,1360.63,144.567)"/></clipPath></defs><g clip-path="url(#_clipPath_wjiIbVsU3uEtffbDT8iLebKzASaIXo0c)"><text transform="matrix(-1,0,0,-1,1352.062,269.499)" style="font-family:'Open Sans';font-weight:700;font-size:36px;font-style:normal;fill:#493939;stroke:none;">2</text></g><defs><clipPath id="_clipPath_wjiIbVsU3uEtffbDT8iLebKzASaIXo0c"><rect x="0" y="0" width="39.685" height="39.685" transform="matrix(-1,0,0,-1,1360.63,303.307)"/></clipPath></defs><g clip-path="url(#_clipPath_aQIRufsKOo7dWWZOZFZ9BSa6LLhVZbsb)"><text transform="matrix(-1,0,0,-1,1352.062,428.239)" style="font-family:'Open Sans';font-weight:700;font-size:36px;font-style:normal;fill:#493939;stroke:none;">8</text></g><defs><clipPath id="_clipPath_aQIRufsKOo7dWWZOZFZ9BSa6LLhVZbsb"><rect x="0" y="0" width="39.685" height="39.685" transform="matrix(-1,0,0,-1,1360.63,462.047)"/></clipPath></defs><g clip-path="url(#_clipPath_Jg6BnhpFxXlTfY3vVZZIK5lTAj68C0f0)"><text transform="matrix(-1,0,0,-1,1352.062,586.979)" style="font-family:'Open Sans';font-weight:700;font-size:36px;font-style:normal;fill:#493939;stroke:none;">7</text></g><defs><clipPath id="_clipPath_Jg6BnhpFxXlTfY3vVZZIK5lTAj68C0f0"><rect x="0" y="0" width="39.685" height="39.685" transform="matrix(-1,0,0,-1,1360.63,620.787)"/></clipPath></defs><g clip-path="url(#_clipPath_0NaVS7boSJyB1laurP5lgD5YfalnAJjA)"><text transform="matrix(1,0,0,1,1222.487,1354.753)" style="font-family:'Open Sans';font-weight:700;font-size:36px;font-style:normal;fill:#493939;stroke:none;">A</text></g><defs><clipPath id="_clipPath_0NaVS7boSJyB1laurP5lgD5YfalnAJjA"><rect x="0" y="0" width="39.685" height="39.685" transform="matrix(1,0,0,1,1216.063,1320.945)"/></clipPath></defs><g clip-path="url(#_clipPath_6vKfmSCB1KRj1IaYlhTWNXPNyTVkUaAh)"><text transform="matrix(1,0,0,1,1064.072,1354.753)" style="font-family:'Open Sans';font-weight:700;font-size:36px;font-style:normal;fill:#493939;stroke:none;">B</text></g><defs><clipPath id="_clipPath_6vKfmSCB1KRj1IaYlhTWNXPNyTVkUaAh"><rect x="0" y="0" width="39.685" height="39.685" transform="matrix(1,0,0,1,1057.323,1320.945)"/></clipPath></defs><g clip-path="url(#_clipPath_rhpPCGpDMX9xr3Y4LxZcupqUyxpEotVN)"><text transform="matrix(1,0,0,1,905.955,1354.753)" style="font-family:'Open Sans';font-weight:700;font-size:36px;font-style:normal;fill:#493939;stroke:none;">C</text></g><defs><clipPath id="_clipPath_rhpPCGpDMX9xr3Y4LxZcupqUyxpEotVN"><rect x="0" y="0" width="39.685" height="39.685" transform="matrix(1,0,0,1,898.583,1320.945)"/></clipPath></defs><g clip-path="url(#_clipPath_KiJNRTPcqm7VpbwljEJd7prTq4sT1l5w)"><text transform="matrix(1,0,0,1,745.361,1354.753)" style="font-family:'Open Sans';font-weight:700;font-size:36px;font-style:normal;fill:#493939;stroke:none;">D</text></g><defs><clipPath id="_clipPath_KiJNRTPcqm7VpbwljEJd7prTq4sT1l5w"><rect x="0" y="0" width="39.685" height="39.685" transform="matrix(1,0,0,1,739.843,1320.945)"/></clipPath></defs><g clip-path="url(#_clipPath_TFpOL1FYAxHUcmNEWDbz9JXuEpHbOCp4)"><text transform="matrix(1,0,0,1,589.864,1354.753)" style="font-family:'Open Sans';font-weight:700;font-size:36px;font-style:normal;fill:#493939;stroke:none;">E</text></g><defs><clipPath id="_clipPath_TFpOL1FYAxHUcmNEWDbz9JXuEpHbOCp4"><rect x="0" y="0" width="39.685" height="39.685" transform="matrix(1,0,0,1,581.102,1320.945)"/></clipPath></defs><g clip-path="url(#_clipPath_UyRiCShv0Sxh24ULY90orZ5mLn49U6sn)"><text transform="matrix(1,0,0,1,431.326,1354.753)" style="font-family:'Open Sans';font-weight:700;font-size:36px;font-style:normal;fill:#493939;stroke:none;">F</text></g><defs><clipPath id="_clipPath_UyRiCShv0Sxh24ULY90orZ5mLn49U6sn"><rect x="0" y="0" width="39.685" height="39.685" transform="matrix(1,0,0,1,422.362,1320.945)"/></clipPath></defs><g clip-path="url(#_clipPath_yiphsknGmxz0MRMtDNoPDIHj2cHPUI62)"><text transform="matrix(1,0,0,1,269.43,1354.753)" style="font-family:'Open Sans';font-weight:700;font-size:36px;font-style:normal;fill:#493939;stroke:none;">G</text></g><defs><clipPath id="_clipPath_yiphsknGmxz0MRMtDNoPDIHj2cHPUI62"><rect x="0" y="0" width="39.685" height="39.685" transform="matrix(1,0,0,1,263.622,1320.945)"/></clipPath></defs><rect x="362.835" y="839.055" width="158.74" height="158.74" transform="matrix(1,0,0,1,0,0)" fill="rgb(73,57,57)"/><rect x="839.055" y="680.315" width="158.74" height="158.74" transform="matrix(1,0,0,1,0,0)" fill="rgb(73,57,57)"/><rect x="680.315" y="839.055" width="158.74" height="158.74" transform="matrix(1,0,0,1,0,0)" fill="rgb(73,57,57)"/><rect x="997.795" y="839.055" width="158.74" height="158.74" transform="matrix(1,0,0,1,0,0)" fill="rgb(73,57,57)"/><rect x="1156.535" y="680.315" width="158.74" height="158.74" transform="matrix(1,0,0,1,0,0)" fill="rgb(73,57,57)"/><rect x="204.094" y="680.315" width="158.74" height="158.74" transform="matrix(1,0,0,1,0,0)" fill="rgb(73,57,57)"/><rect x="521.575" y="680.315" width="158.74" height="158.74" transform="matrix(1,0,0,1,0,0)" fill="rgb(73,57,57)"/><rect x="45.354" y="839.055" width="158.74" height="158.74" transform="matrix(1,0,0,1,0,0)" fill="rgb(73,57,57)"/><rect x="362.835" y="1156.535" width="158.74" height="158.74" transform="matrix(1,0,0,1,0,0)" fill="rgb(73,57,57)"/><rect x="839.055" y="997.795" width="158.74" height="158.74" transform="matrix(1,0,0,1,0,0)" fill="rgb(73,57,57)"/><rect x="680.315" y="1156.535" width="158.74" height="158.74" transform="matrix(1,0,0,1,0,0)" fill="rgb(73,57,57)"/><rect x="997.795" y="1156.535" width="158.74" height="158.74" transform="matrix(1,0,0,1,0,0)" fill="rgb(73,57,57)"/><rect x="1156.535" y="997.795" width="158.74" height="158.74" transform="matrix(1,0,0,1,0,0)" fill="rgb(73,57,57)"/><rect x="204.094" y="997.795" width="158.74" height="158.74" transform="matrix(1,0,0,1,0,0)" fill="rgb(73,57,57)"/><rect x="521.575" y="997.795" width="158.74" height="158.74" transform="matrix(1,0,0,1,0,0)" fill="rgb(73,57,57)"/><rect x="45.354" y="1156.535" width="158.74" height="158.74" transform="matrix(1,0,0,1,0,0)" fill="rgb(73,57,57)"/><g clip-path="url(#_clipPath_5uLhd1ypQhYDO2BQmI7ELOLxlBA1kZ44)"><text transform="matrix(1,0,0,1,14.237,138.69)" style="font-family:'Open Sans';font-weight:700;font-size:36px;font-style:normal;fill:#493939;stroke:none;">1</text></g><defs><clipPath id="_clipPath_5uLhd1ypQhYDO2BQmI7ELOLxlBA1kZ44"><rect x="0" y="0" width="28.346" height="28.346" transform="matrix(1,0,0,1,11.339,110.551)"/></clipPath></defs><g clip-path="url(#_clipPath_AJgetnGmicJS9WTuo1blxFhAhqMBkf0v)"><text transform="matrix(1,0,0,1,8.568,297.43)" style="font-family:'Open Sans';font-weight:700;font-size:36px;font-style:normal;fill:#493939;stroke:none;">2</text></g><defs><clipPath id="_clipPath_AJgetnGmicJS9WTuo1blxFhAhqMBkf0v"><rect x="0" y="0" width="39.685" height="39.685" transform="matrix(1,0,0,1,0,263.622)"/></clipPath></defs><g clip-path="url(#_clipPath_41JsVEpakByVMjKRmvPEduqawu8lS93c)"><text transform="matrix(1,0,0,1,8.568,456.171)" style="font-family:'Open Sans';font-weight:700;font-size:36px;font-style:normal;fill:#493939;stroke:none;">3</text></g><defs><clipPath id="_clipPath_41JsVEpakByVMjKRmvPEduqawu8lS93c"><rect x="0" y="0" width="39.685" height="39.685" transform="matrix(1,0,0,1,0,422.362)"/></clipPath></defs><g clip-path="url(#_clipPath_YVM7OZPScj4PNBVzsdtjNnx66D2Noa5c)"><text transform="matrix(1,0,0,1,110.551,1349.084)" style="font-family:'Open Sans';font-weight:700;font-size:36px;font-style:normal;fill:#493939;stroke:none;">H</text></g><defs><clipPath id="_clipPath_YVM7OZPScj4PNBVzsdtjNnx66D2Noa5c"><rect x="0" y="0" width="28.346" height="28.346" transform="matrix(1,0,0,1,110.551,1320.945)"/></clipPath></defs><g clip-path="url(#_clipPath_63eLcPF77Eq4GCDTXGGRywnUsCc3M5k9)"><text transform="matrix(-1,0,0,-1,1249.324,5.877)" style="font-family:'Open Sans';font-weight:700;font-size:36px;font-style:normal;fill:#493939;stroke:none;">A</text></g><defs><clipPath id="_clipPath_63eLcPF77Eq4GCDTXGGRywnUsCc3M5k9"><rect x="0" y="0" width="39.685" height="39.685" transform="matrix(-1,0,0,-1,1255.748,39.685)"/></clipPath></defs><g clip-path="url(#_clipPath_4jcIDmEUhWbnYeCatrBlJBTKyrVTMGCh)"><text transform="matrix(-1,0,0,-1,1090.259,5.877)" style="font-family:'Open Sans';font-weight:700;font-size:36px;font-style:normal;fill:#493939;stroke:none;">B</text></g><defs><clipPath id="_clipPath_4jcIDmEUhWbnYeCatrBlJBTKyrVTMGCh"><rect x="0" y="0" width="39.685" height="39.685" transform="matrix(-1,0,0,-1,1097.008,39.685)"/></clipPath></defs><g clip-path="url(#_clipPath_DBuLlMSrZeD5sJLHklt2r39HbEPUNfkQ)"><text transform="matrix(-1,0,0,-1,930.895,5.877)" style="font-family:'Open Sans';font-weight:700;font-size:36px;font-style:normal;fill:#493939;stroke:none;">C</text></g><defs><clipPath id="_clipPath_DBuLlMSrZeD5sJLHklt2r39HbEPUNfkQ"><rect x="0" y="0" width="39.685" height="39.685" transform="matrix(-1,0,0,-1,938.268,39.685)"/></clipPath></defs><g clip-path="url(#_clipPath_6VlKCBbEpjUFI8VOxuAPduGJZOlN6Y6y)"><text transform="matrix(-1,0,0,-1,774.009,5.877)" style="font-family:'Open Sans';font-weight:700;font-size:36px;font-style:normal;fill:#493939;stroke:none;">D</text></g><defs><clipPath id="_clipPath_6VlKCBbEpjUFI8VOxuAPduGJZOlN6Y6y"><rect x="0" y="0" width="39.685" height="39.685" transform="matrix(-1,0,0,-1,779.528,39.685)"/></clipPath></defs><g clip-path="url(#_clipPath_NlNAffLXmXRyefttKyKx90l9ZT7s567Z)"><text transform="matrix(-1,0,0,-1,612.026,5.877)" style="font-family:'Open Sans';font-weight:700;font-size:36px;font-style:normal;fill:#493939;stroke:none;">E</text></g><defs><clipPath id="_clipPath_NlNAffLXmXRyefttKyKx90l9ZT7s567Z"><rect x="0" y="0" width="39.685" height="39.685" transform="matrix(-1,0,0,-1,620.787,39.685)"/></clipPath></defs><g clip-path="url(#_clipPath_OPFWn1qG7bnD5eLCiRyuj50jvX0R7JIc)"><text transform="matrix(-1,0,0,-1,453.084,5.877)" style="font-family:'Open Sans';font-weight:700;font-size:36px;font-style:normal;fill:#493939;stroke:none;">F</text></g><defs><clipPath id="_clipPath_OPFWn1qG7bnD5eLCiRyuj50jvX0R7JIc"><rect x="0" y="0" width="39.685" height="39.685" transform="matrix(-1,0,0,-1,462.047,39.685)"/></clipPath></defs><g clip-path="url(#_clipPath_iROr8dJMuV151NtiOIN2z7d8hcjraZwx)"><text transform="matrix(-1,0,0,-1,297.499,5.877)" style="font-family:'Open Sans';font-weight:700;font-size:36px;font-style:normal;fill:#493939;stroke:none;">G</text></g><defs><clipPath id="_clipPath_iROr8dJMuV151NtiOIN2z7d8hcjraZwx"><rect x="0" y="0" width="39.685" height="39.685" transform="matrix(-1,0,0,-1,303.307,39.685)"/></clipPath></defs><g clip-path="url(#_clipPath_WgHxO5xRHjB7aIRgZYYX6gD657SSXtUP)"><text transform="matrix(-1,0,0,-1,138.898,11.546)" style="font-family:'Open Sans';font-weight:700;font-size:36px;font-style:normal;fill:#493939;stroke:none;">H</text></g><defs><clipPath id="_clipPath_WgHxO5xRHjB7aIRgZYYX6gD657SSXtUP"><rect x="0" y="0" width="28.346" height="28.346" transform="matrix(-1,0,0,-1,138.898,39.685)"/></clipPath></defs><g clip-path="url(#_clipPath_x6lAZTsFL50KZb1mdBug8I09tJDSPiLh)"><text transform="matrix(1,0,0,1,8.568,614.911)" style="font-family:'Open Sans';font-weight:700;font-size:36px;font-style:normal;fill:#493939;stroke:none;">4</text></g><defs><clipPath id="_clipPath_x6lAZTsFL50KZb1mdBug8I09tJDSPiLh"><rect x="0" y="0" width="39.685" height="39.685" transform="matrix(1,0,0,1,0,581.102)"/></clipPath></defs><g clip-path="url(#_clipPath_avTSifIwb6sErpBbpPqaSqhxiMuVz5Gk)"><text transform="matrix(1,0,0,1,8.568,773.651)" style="font-family:'Open Sans';font-weight:700;font-size:36px;font-style:normal;fill:#493939;stroke:none;">5</text></g><defs><clipPath id="_clipPath_avTSifIwb6sErpBbpPqaSqhxiMuVz5Gk"><rect x="0" y="0" width="39.685" height="39.685" transform="matrix(1,0,0,1,0,739.843)"/></clipPath></defs><g clip-path="url(#_clipPath_mWDd7iKl3tqeK1684tS9WYcqKMfUL3Bp)"><text transform="matrix(1,0,0,1,8.568,932.391)" style="font-family:'Open Sans';font-weight:700;font-size:36px;font-style:normal;fill:#493939;stroke:none;">6</text></g><defs><clipPath id="_clipPath_mWDd7iKl3tqeK1684tS9WYcqKMfUL3Bp"><rect x="0" y="0" width="39.685" height="39.685" transform="matrix(1,0,0,1,0,898.583)"/></clipPath></defs><g clip-path="url(#_clipPath_Z0tvhREMg6e1H6eIOnT4jlpcxnRfq3Yb)"><text transform="matrix(1,0,0,1,8.568,1091.131)" style="font-family:'Open Sans';font-weight:700;font-size:36px;font-style:normal;fill:#493939;stroke:none;">7</text></g><defs><clipPath id="_clipPath_Z0tvhREMg6e1H6eIOnT4jlpcxnRfq3Yb"><rect x="0" y="0" width="39.685" height="39.685" transform="matrix(1,0,0,1,0,1057.323)"/></clipPath></defs><g clip-path="url(#_clipPath_LjpuugWWQXWNtjodQL0hlLz1rgjL729N)"><text transform="matrix(1,0,0,1,8.568,1249.871)" style="font-family:'Open Sans';font-weight:700;font-size:36px;font-style:normal;fill:#493939;stroke:none;">8</text></g><defs><clipPath id="_clipPath_LjpuugWWQXWNtjodQL0hlLz1rgjL729N"><rect x="0" y="0" width="39.685" height="39.685" transform="matrix(1,0,0,1,0,1216.063)"/></clipPath></defs><mask id="_mask_rIwnWA4KSEXRQALmOuey2eZoP0Q746cd"><circle vector-effect="non-scaling-stroke" cx="283.464566929134" cy="124.72440944881889" r="5.6692913385826955" fill="white" stroke="none"/></mask><circle vector-effect="non-scaling-stroke" cx="283.464566929134" cy="124.72440944881889" r="5.6692913385826955" fill="rgb(73,57,57)"/><circle vector-effect="non-scaling-stroke" cx="283.464566929134" cy="124.72440944881889" r="5.6692913385826955" fill="rgb(73,57,57)" mask="url(#_mask_rIwnWA4KSEXRQALmOuey2eZoP0Q746cd)" stroke-width="4" stroke="rgb(229,215,186)" stroke-linejoin="miter" stroke-linecap="square" stroke-miterlimit="3"/><mask id="_mask_qWLVQLHzwEoSa1BVuQFdqQo2reUAiKPb"><circle vector-effect="non-scaling-stroke" cx="124.72440944881882" cy="283.4645669291339" r="5.669291338582674" fill="white" stroke="none"/></mask><circle vector-effect="non-scaling-stroke" cx="124.72440944881882" cy="283.4645669291339" r="5.669291338582674" fill="rgb(73,57,57)"/><circle vector-effect="non-scaling-stroke" cx="124.72440944881882" cy="283.4645669291339" r="5.669291338582674" fill="rgb(73,57,57)" mask="url(#_mask_qWLVQLHzwEoSa1BVuQFdqQo2reUAiKPb)" stroke-width="4" stroke="rgb(229,215,186)" stroke-linejoin="miter" stroke-linecap="square" stroke-miterlimit="3"/><mask id="_mask_Wqx1HsCdcslvHOozyfafWMcVUw1f3OZl"><circle vector-effect="non-scaling-stroke" cx="124.72440944881885" cy="124.72440944881889" r="5.669291338582674" fill="white" stroke="none"/></mask><circle vector-effect="non-scaling-stroke" cx="124.72440944881885" cy="124.72440944881889" r="5.669291338582674" fill="rgb(229,215,186)"/><circle vector-effect="non-scaling-stroke" cx="124.72440944881885" cy="124.72440944881889" r="5.669291338582674" fill="rgb(229,215,186)" mask="url(#_mask_Wqx1HsCdcslvHOozyfafWMcVUw1f3OZl)" stroke-width="4" stroke="rgb(73,57,57)" stroke-linejoin="miter" stroke-linecap="square" stroke-miterlimit="3"/><mask id="_mask_r6ECIDNKD0hJ9Dvkb7MdQlcchmxDW7GB"><circle vector-effect="non-scaling-stroke" cx="442.2047244094489" cy="124.7244094488191" r="5.6692913385826955" fill="white" stroke="none"/></mask><circle vector-effect="non-scaling-stroke" cx="442.2047244094489" cy="124.7244094488191" r="5.6692913385826955" fill="rgb(229,215,186)"/><circle vector-effect="non-scaling-stroke" cx="442.2047244094489" cy="124.7244094488191" r="5.6692913385826955" fill="rgb(229,215,186)" mask="url(#_mask_r6ECIDNKD0hJ9Dvkb7MdQlcchmxDW7GB)" stroke-width="4" stroke="rgb(73,57,57)" stroke-linejoin="miter" stroke-linecap="square" stroke-miterlimit="3"/><mask id="_mask_ZpXhson45frvlPONVitpX5FFK0Q0JwJu"><circle vector-effect="non-scaling-stroke" cx="283.46456692913404" cy="283.46456692913375" r="5.6692913385826955" fill="white" stroke="none"/></mask><circle vector-effect="non-scaling-stroke" cx="283.46456692913404" cy="283.46456692913375" r="5.6692913385826955" fill="rgb(229,215,186)"/><circle vector-effect="non-scaling-stroke" cx="283.46456692913404" cy="283.46456692913375" r="5.6692913385826955" fill="rgb(229,215,186)" mask="url(#_mask_ZpXhson45frvlPONVitpX5FFK0Q0JwJu)" stroke-width="4" stroke="rgb(73,57,57)" stroke-linejoin="miter" stroke-linecap="square" stroke-miterlimit="3"/><mask id="_mask_TmFBfxNn5z4lRfqWn6R2ppXQBai0lSB4"><circle vector-effect="non-scaling-stroke" cx="124.72440944881885" cy="442.2047244094489" r="5.669291338582674" fill="white" stroke="none"/></mask><circle vector-effect="non-scaling-stroke" cx="124.72440944881885" cy="442.2047244094489" r="5.669291338582674" fill="rgb(229,215,186)"/><circle vector-effect="non-scaling-stroke" cx="124.72440944881885" cy="442.2047244094489" r="5.669291338582674" fill="rgb(229,215,186)" mask="url(#_mask_TmFBfxNn5z4lRfqWn6R2ppXQBai0lSB4)" stroke-width="4" stroke="rgb(73,57,57)" stroke-linejoin="miter" stroke-linecap="square" stroke-miterlimit="3"/><mask id="_mask_ClShTgdRdLpke3vVsWaGc7XOb6mY93yH"><circle vector-effect="non-scaling-stroke" cx="283.464566929134" cy="124.72440944881889" r="5.6692913385826955" fill="white" stroke="none"/></mask><circle vector-effect="non-scaling-stroke" cx="283.464566929134" cy="124.72440944881889" r="5.6692913385826955" fill="rgb(73,57,57)"/><circle vector-effect="non-scaling-stroke" cx="283.464566929134" cy="124.72440944881889" r="5.6692913385826955" fill="rgb(73,57,57)" mask="url(#_mask_ClShTgdRdLpke3vVsWaGc7XOb6mY93yH)" stroke-width="4" stroke="rgb(229,215,186)" stroke-linejoin="miter" stroke-linecap="square" stroke-miterlimit="3"/><mask id="_mask_3Aiy4mVatDWbmJyURDCxUmM5DQuoetch"><circle vector-effect="non-scaling-stroke" cx="442.2047244094487" cy="283.4645669291339" r="5.6692913385826955" fill="white" stroke="none"/></mask><circle vector-effect="non-scaling-stroke" cx="442.2047244094487" cy="283.4645669291339" r="5.6692913385826955" fill="rgb(73,57,57)"/><circle vector-effect="non-scaling-stroke" cx="442.2047244094487" cy="283.4645669291339" r="5.6692913385826955" fill="rgb(73,57,57)" mask="url(#_mask_3Aiy4mVatDWbmJyURDCxUmM5DQuoetch)" stroke-width="4" stroke="rgb(229,215,186)" stroke-linejoin="miter" stroke-linecap="square" stroke-miterlimit="3"/><mask id="_mask_NfH4yHqyD5UXWTDwlyWpFW5k0yfH928Z"><circle vector-effect="non-scaling-stroke" cx="283.46456692913375" cy="442.2047244094492" r="5.6692913385826955" fill="white" stroke="none"/></mask><circle vector-effect="non-scaling-stroke" cx="283.46456692913375" cy="442.2047244094492" r="5.6692913385826955" fill="rgb(73,57,57)"/><circle vector-effect="non-scaling-stroke" cx="283.46456692913375" cy="442.2047244094492" r="5.6692913385826955" fill="rgb(73,57,57)" mask="url(#_mask_NfH4yHqyD5UXWTDwlyWpFW5k0yfH928Z)" stroke-width="4" stroke="rgb(229,215,186)" stroke-linejoin="miter" stroke-linecap="square" stroke-miterlimit="3"/><mask id="_mask_cS3qJGeWMusgG5adR0uC8VRIRt9zwV0G"><circle vector-effect="non-scaling-stroke" cx="442.20472440944894" cy="442.2047244094492" r="5.6692913385826955" fill="white" stroke="none"/></mask><circle vector-effect="non-scaling-stroke" cx="442.20472440944894" cy="442.2047244094492" r="5.6692913385826955" fill="rgb(229,215,186)"/><circle vector-effect="non-scaling-stroke" cx="442.20472440944894" cy="442.2047244094492" r="5.6692913385826955" fill="rgb(229,215,186)" mask="url(#_mask_cS3qJGeWMusgG5adR0uC8VRIRt9zwV0G)" stroke-width="4" stroke="rgb(73,57,57)" stroke-linejoin="miter" stroke-linecap="square" stroke-miterlimit="3"/><mask id="_mask_BsNTQihexNRsxpqnh3NS1e37BHSmvExg"><circle vector-effect="non-scaling-stroke" cx="759.6850393700788" cy="283.4645669291339" r="5.669291338582639" fill="white" stroke="none"/></mask><circle vector-effect="non-scaling-stroke" cx="759.6850393700788" cy="283.4645669291339" r="5.669291338582639" fill="rgb(73,57,57)"/><circle vector-effect="non-scaling-stroke" cx="759.6850393700788" cy="283.4645669291339" r="5.669291338582639" fill="rgb(73,57,57)" mask="url(#_mask_BsNTQihexNRsxpqnh3NS1e37BHSmvExg)" stroke-width="4" stroke="rgb(229,215,186)" stroke-linejoin="miter" stroke-linecap="square" stroke-miterlimit="3"/><mask id="_mask_cbkjwY0CI5qv4BpyMRM6SLfzDV8c1R7R"><circle vector-effect="non-scaling-stroke" cx="759.6850393700788" cy="124.72440944881889" r="5.669291338582639" fill="white" stroke="none"/></mask><circle vector-effect="non-scaling-stroke" cx="759.6850393700788" cy="124.72440944881889" r="5.669291338582639" fill="rgb(229,215,186)"/><circle vector-effect="non-scaling-stroke" cx="759.6850393700788" cy="124.72440944881889" r="5.669291338582639" fill="rgb(229,215,186)" mask="url(#_mask_cbkjwY0CI5qv4BpyMRM6SLfzDV8c1R7R)" stroke-width="4" stroke="rgb(73,57,57)" stroke-linejoin="miter" stroke-linecap="square" stroke-miterlimit="3"/><mask id="_mask_PIcxGihVggeMcWuIr7ylTFJy5CqG0wgc"><circle vector-effect="non-scaling-stroke" cx="1077.1653543307089" cy="124.72440944881909" r="5.669291338582752" fill="white" stroke="none"/></mask><circle vector-effect="non-scaling-stroke" cx="1077.1653543307089" cy="124.72440944881909" r="5.669291338582752" fill="rgb(229,215,186)"/><circle vector-effect="non-scaling-stroke" cx="1077.1653543307089" cy="124.72440944881909" r="5.669291338582752" fill="rgb(229,215,186)" mask="url(#_mask_PIcxGihVggeMcWuIr7ylTFJy5CqG0wgc)" stroke-width="4" stroke="rgb(73,57,57)" stroke-linejoin="miter" stroke-linecap="square" stroke-miterlimit="3"/><mask id="_mask_SuLLBMaber5PWxVdnBT1dngiLlFmO6Dc"><circle vector-effect="non-scaling-stroke" cx="918.4251968503941" cy="283.46456692913375" r="5.669291338582639" fill="white" stroke="none"/></mask><circle vector-effect="non-scaling-stroke" cx="918.4251968503941" cy="283.46456692913375" r="5.669291338582639" fill="rgb(229,215,186)"/><circle vector-effect="non-scaling-stroke" cx="918.4251968503941" cy="283.46456692913375" r="5.669291338582639" fill="rgb(229,215,186)" mask="url(#_mask_SuLLBMaber5PWxVdnBT1dngiLlFmO6Dc)" stroke-width="4" stroke="rgb(73,57,57)" stroke-linejoin="miter" stroke-linecap="square" stroke-miterlimit="3"/><mask id="_mask_ZV3NQ0PJkvA9a91PNj9P65flfiRXa2Np"><circle vector-effect="non-scaling-stroke" cx="759.6850393700788" cy="442.2047244094489" r="5.669291338582639" fill="white" stroke="none"/></mask><circle vector-effect="non-scaling-stroke" cx="759.6850393700788" cy="442.2047244094489" r="5.669291338582639" fill="rgb(229,215,186)"/><circle vector-effect="non-scaling-stroke" cx="759.6850393700788" cy="442.2047244094489" r="5.669291338582639" fill="rgb(229,215,186)" mask="url(#_mask_ZV3NQ0PJkvA9a91PNj9P65flfiRXa2Np)" stroke-width="4" stroke="rgb(73,57,57)" stroke-linejoin="miter" stroke-linecap="square" stroke-miterlimit="3"/><mask id="_mask_qUE9qHaw50dYm1yrzEH9koHX15fgrlnI"><circle vector-effect="non-scaling-stroke" cx="918.425196850394" cy="124.72440944881889" r="5.669291338582639" fill="white" stroke="none"/></mask><circle vector-effect="non-scaling-stroke" cx="918.425196850394" cy="124.72440944881889" r="5.669291338582639" fill="rgb(73,57,57)"/><circle vector-effect="non-scaling-stroke" cx="918.425196850394" cy="124.72440944881889" r="5.669291338582639" fill="rgb(73,57,57)" mask="url(#_mask_qUE9qHaw50dYm1yrzEH9koHX15fgrlnI)" stroke-width="4" stroke="rgb(229,215,186)" stroke-linejoin="miter" stroke-linecap="square" stroke-miterlimit="3"/><mask id="_mask_C8FxVS8ooVPJSwt6ktPHIZceR5Rt1F3F"><circle vector-effect="non-scaling-stroke" cx="1077.1653543307086" cy="283.4645669291339" r="5.669291338582752" fill="white" stroke="none"/></mask><circle vector-effect="non-scaling-stroke" cx="1077.1653543307086" cy="283.4645669291339" r="5.669291338582752" fill="rgb(73,57,57)"/><circle vector-effect="non-scaling-stroke" cx="1077.1653543307086" cy="283.4645669291339" r="5.669291338582752" fill="rgb(73,57,57)" mask="url(#_mask_C8FxVS8ooVPJSwt6ktPHIZceR5Rt1F3F)" stroke-width="4" stroke="rgb(229,215,186)" stroke-linejoin="miter" stroke-linecap="square" stroke-miterlimit="3"/><mask id="_mask_5prmeWkQj2NaMjOVBQDgrEU3yKHoL0OW"><circle vector-effect="non-scaling-stroke" cx="1077.1653543307089" cy="442.2047244094493" r="5.669291338582752" fill="white" stroke="none"/></mask><circle vector-effect="non-scaling-stroke" cx="1077.1653543307089" cy="442.2047244094493" r="5.669291338582752" fill="rgb(229,215,186)"/><circle vector-effect="non-scaling-stroke" cx="1077.1653543307089" cy="442.2047244094493" r="5.669291338582752" fill="rgb(229,215,186)" mask="url(#_mask_5prmeWkQj2NaMjOVBQDgrEU3yKHoL0OW)" stroke-width="4" stroke="rgb(73,57,57)" stroke-linejoin="miter" stroke-linecap="square" stroke-miterlimit="3"/></g></svg>